{"title":"Jamsha El PutiPuerko - Su Hija Se Enamoro De Un Kako (h264)","uid":7461690,"size":358246942,"categoryP":"video","categoryS":"music_videos","magnet":"?xt=urn:btih:dd6225a3cadc3f7e03d7a594d103628ed10224ec&amp;dn=Jamsha+El+PutiPuerko+-+Su+Hija+Se+Enamoro+De+Un+Kako+%28h264%29&amp;tr=udp%3A%2F%2Ftracker.openbittorrent.com%3A80&amp;tr=udp%3A%2F%2Fopen.demonii.com%3A1337&amp;tr=udp%3A%2F%2Ftracker.coppersurfer.tk%3A6969&amp;tr=udp%3A%2F%2Fexodus.desync.com%3A6969","seeders":1,"leechers":0,"uploader":"MusicVideos-HQ","files":1,"time":1342837832,"description":"General\n\nFormat                         : MPEG-4\nFormat profile                 : Base Media\nCodec ID                       : isom\nFile size                      : 342 MiB\nDuration                       : 13mn 40s\nOverall bit rate mode          : Variable\nOverall bit rate               : 3 494 Kbps\nEncoded date                   : UTC 2012-07-20 00:57:09\nTagged date                    : UTC 2012-07-20 00:57:09\n\nVideo\nID                             : 1\nFormat                         : AVC\nFormat/Info                    : Advanced Video Codec\nFormat profile                 : &lt;a class=&quot;__cf_email__&quot; href=&quot;/cdn-cgi/l/email-protection&quot; data-cfemail=&quot;743c1d131c3438475a44&quot;&gt;[email&amp;#160;protected]&lt;/a&gt;&lt;script cf-hash='f9e31' type=&quot;text/javascript&quot;&gt;\n/* &lt;![CDATA[ */!function(){try{var t=&quot;currentScript&quot;in document?document.currentScript:function(){for(var t=document.getElementsByTagName(&quot;script&quot;),e=t.length;e--;)if(t[e].getAttribute(&quot;cf-hash&quot;))return t[e]}();if(t&amp;&amp;t.previousSibling){var e,r,n,i,c=t.previousSibling,a=c.getAttribute(&quot;data-cfemail&quot;);if(a){for(e=&quot;&quot;,r=parseInt(a.substr(0,2),16),n=2;a.length-n;n+=2)i=parseInt(a.substr(n,2),16)^r,e+=String.fromCharCode(i);e=document.createTextNode(e),c.parentNode.replaceChild(e,c)}}}catch(u){}}();/* ]]&gt; */&lt;/script&gt;\nFormat settings, CABAC         : Yes\nFormat settings, ReFrames      : 2 frames\nCodec ID                       : avc1\nCodec ID/Info                  : Advanced Video Coding\nDuration                       : 13mn 40s\nBit rate                       : 3 383 Kbps\nMaximum bit rate               : 9 270 Kbps\nWidth                          : 720 pixels\nHeight                         : 480 pixels\nDisplay aspect ratio           : 16:9\nOriginal display aspect ratio  : 16:9\nFrame rate mode                : Constant\nFrame rate                     : 29.970 fps\nStandard                       : NTSC\nColor space                    : YUV\nChroma subsampling             : 4:2:0\nBit depth                      : 8 bits\nScan type                      : Progressive\nBits/(Pixel*Frame)             : 0.327\nStream size                    : 322 MiB (94%)\n\n\nAudio\nID                             : 2\nFormat                         : AAC\nFormat/Info                    : Advanced Audio Codec\nFormat profile                 : LC\nCodec ID                       : 40\nDuration                       : 13mn 40s\nBit rate mode                  : Variable\nBit rate                       : 192 Kbps\nMaximum bit rate               : 241 Kbps\nChannel(s)                     : 2 channels\nChannel positions              : Front: L R\nSampling rate                  : 44.1 KHz\nCompression mode               : Lossy\nDelay relative to video        : -667ms\nStream size                    : 18.7 MiB (5%)","torrent":{"xt":"urn:btih:dd6225a3cadc3f7e03d7a594d103628ed10224ec","amp;dn":"Jamsha+El+PutiPuerko+-+Su+Hija+Se+Enamoro+De+Un+Kako+%28h264%29","amp;tr":["udp%3A%2F%2Ftracker.openbittorrent.com%3A80","udp%3A%2F%2Fopen.demonii.com%3A1337","udp%3A%2F%2Ftracker.coppersurfer.tk%3A6969","udp%3A%2F%2Fexodus.desync.com%3A6969"],"infoHash":"dd6225a3cadc3f7e03d7a594d103628ed10224ec","infoHashBuffer":{"type":"Buffer","data":[221,98,37,163,202,220,63,126,3,215,165,148,209,3,98,142,209,2,36,236]},"announce":[],"urlList":[]}}